<svg xmlns="http://www.w3.org/2000/svg" width="1200" height="675" viewBox="0 0 1200 675"><rect width="1200" height="675" fill="#F5F7FB"/><rect x="0" y="0" width="1200" height="128" fill="#0B1E3A"/><rect x="0" y="123" width="1200" height="5" fill="#F5B301"/><text x="48" y="62" font-family="Arial, Helvetica, sans-serif" font-size="40" font-weight="700" fill="#FFFFFF" text-anchor="start">Draw Days by Operator</text><rect x="1042.3" y="46" width="109.7" height="30" rx="15" fill="#F5B301"/><text x="1097.15" y="66" font-family="Arial, Helvetica, sans-serif" font-size="15" font-weight="700" fill="#0B1E3A" text-anchor="middle" letter-spacing="1.5">WEEK GRID</text><g transform="translate(0,164)"><rect x="48" y="0" width="331.2" height="56" fill="#0B1E3A"/><text x="64" y="35" font-family="Arial, Helvetica, sans-serif" font-size="20" font-weight="700" fill="#F5B301" text-anchor="start">Operator</text><rect x="379.2" y="0" width="110.4" height="56" fill="#16365F"/><text x="395.2" y="35" font-family="Arial, Helvetica, sans-serif" font-size="20" font-weight="700" fill="#F5B301" text-anchor="start">Mon</text><rect x="489.6" y="0" width="110.4" height="56" fill="#16365F"/><text x="505.6" y="35" font-family="Arial, Helvetica, sans-serif" font-size="20" font-weight="700" fill="#F5B301" text-anchor="start">Tue</text><rect x="600" y="0" width="110.4" height="56" fill="#16365F"/><text x="616" y="35" font-family="Arial, Helvetica, sans-serif" font-size="20" font-weight="700" fill="#F5B301" text-anchor="start">Wed</text><rect x="710.4" y="0" width="110.4" height="56" fill="#16365F"/><text x="726.4" y="35" font-family="Arial, Helvetica, sans-serif" font-size="20" font-weight="700" fill="#F5B301" text-anchor="start">Thu</text><rect x="820.8" y="0" width="110.4" height="56" fill="#16365F"/><text x="836.8" y="35" font-family="Arial, Helvetica, sans-serif" font-size="20" font-weight="700" fill="#F5B301" text-anchor="start">Fri</text><rect x="931.1999999999999" y="0" width="110.4" height="56" fill="#16365F"/><text x="947.1999999999999" y="35" font-family="Arial, Helvetica, sans-serif" font-size="20" font-weight="700" fill="#F5B301" text-anchor="start">Sat</text><rect x="1041.6" y="0" width="110.4" height="56" fill="#16365F"/><text x="1057.6" y="35" font-family="Arial, Helvetica, sans-serif" font-size="20" font-weight="700" fill="#F5B301" text-anchor="start">Sun</text><rect x="48" y="56" width="1104" height="64.35" fill="#FFFFFF"/><text x="64" y="90" font-family="Arial, Helvetica, sans-serif" font-size="21" font-weight="700" fill="#101828" text-anchor="start">Magnum 4D</text><text x="395.2" y="90" font-family="Arial, Helvetica, sans-serif" font-size="21" font-weight="400" fill="#5B6472" text-anchor="start">-</text><line x1="379.2" y1="56" x2="379.2" y2="120.35" stroke="#DDE3EC"/><text x="505.6" y="90" font-family="Arial, Helvetica, sans-serif" font-size="21" font-weight="400" fill="#5B6472" text-anchor="start">-</text><line x1="489.6" y1="56" x2="489.6" y2="120.35" stroke="#DDE3EC"/><text x="616" y="90" font-family="Arial, Helvetica, sans-serif" font-size="21" font-weight="400" fill="#5B6472" text-anchor="start">DRAW</text><line x1="600" y1="56" x2="600" y2="120.35" stroke="#DDE3EC"/><text x="726.4" y="90" font-family="Arial, Helvetica, sans-serif" font-size="21" font-weight="400" fill="#5B6472" text-anchor="start">-</text><line x1="710.4" y1="56" x2="710.4" y2="120.35" stroke="#DDE3EC"/><text x="836.8" y="90" font-family="Arial, Helvetica, sans-serif" font-size="21" font-weight="400" fill="#5B6472" text-anchor="start">-</text><line x1="820.8" y1="56" x2="820.8" y2="120.35" stroke="#DDE3EC"/><text x="947.1999999999999" y="90" font-family="Arial, Helvetica, sans-serif" font-size="21" font-weight="400" fill="#5B6472" text-anchor="start">DRAW</text><line x1="931.1999999999999" y1="56" x2="931.1999999999999" y2="120.35" stroke="#DDE3EC"/><text x="1057.6" y="90" font-family="Arial, Helvetica, sans-serif" font-size="21" font-weight="400" fill="#5B6472" text-anchor="start">DRAW</text><line x1="1041.6" y1="56" x2="1041.6" y2="120.35" stroke="#DDE3EC"/><line x1="48" y1="120.35" x2="1152" y2="120.35" stroke="#DDE3EC"/><rect x="48" y="120.35" width="1104" height="64.35" fill="#F0F3F9"/><text x="64" y="154.35" font-family="Arial, Helvetica, sans-serif" font-size="21" font-weight="700" fill="#101828" text-anchor="start">Sports Toto</text><text x="395.2" y="154.35" font-family="Arial, Helvetica, sans-serif" font-size="21" font-weight="400" fill="#5B6472" text-anchor="start">-</text><line x1="379.2" y1="120.35" x2="379.2" y2="184.7" stroke="#DDE3EC"/><text x="505.6" y="154.35" font-family="Arial, Helvetica, sans-serif" font-size="21" font-weight="400" fill="#5B6472" text-anchor="start">-</text><line x1="489.6" y1="120.35" x2="489.6" y2="184.7" stroke="#DDE3EC"/><text x="616" y="154.35" font-family="Arial, Helvetica, sans-serif" font-size="21" font-weight="400" fill="#5B6472" text-anchor="start">DRAW</text><line x1="600" y1="120.35" x2="600" y2="184.7" stroke="#DDE3EC"/><text x="726.4" y="154.35" font-family="Arial, Helvetica, sans-serif" font-size="21" font-weight="400" fill="#5B6472" text-anchor="start">-</text><line x1="710.4" y1="120.35" x2="710.4" y2="184.7" stroke="#DDE3EC"/><text x="836.8" y="154.35" font-family="Arial, Helvetica, sans-serif" font-size="21" font-weight="400" fill="#5B6472" text-anchor="start">-</text><line x1="820.8" y1="120.35" x2="820.8" y2="184.7" stroke="#DDE3EC"/><text x="947.1999999999999" y="154.35" font-family="Arial, Helvetica, sans-serif" font-size="21" font-weight="400" fill="#5B6472" text-anchor="start">DRAW</text><line x1="931.1999999999999" y1="120.35" x2="931.1999999999999" y2="184.7" stroke="#DDE3EC"/><text x="1057.6" y="154.35" font-family="Arial, Helvetica, sans-serif" font-size="21" font-weight="400" fill="#5B6472" text-anchor="start">DRAW</text><line x1="1041.6" y1="120.35" x2="1041.6" y2="184.7" stroke="#DDE3EC"/><line x1="48" y1="184.7" x2="1152" y2="184.7" stroke="#DDE3EC"/><rect x="48" y="184.7" width="1104" height="64.35" fill="#FFFFFF"/><text x="64" y="218.7" font-family="Arial, Helvetica, sans-serif" font-size="21" font-weight="700" fill="#101828" text-anchor="start">Da Ma Cai</text><text x="395.2" y="218.7" font-family="Arial, Helvetica, sans-serif" font-size="21" font-weight="400" fill="#5B6472" text-anchor="start">-</text><line x1="379.2" y1="184.7" x2="379.2" y2="249.04999999999998" stroke="#DDE3EC"/><text x="505.6" y="218.7" font-family="Arial, Helvetica, sans-serif" font-size="21" font-weight="400" fill="#5B6472" text-anchor="start">-</text><line x1="489.6" y1="184.7" x2="489.6" y2="249.04999999999998" stroke="#DDE3EC"/><text x="616" y="218.7" font-family="Arial, Helvetica, sans-serif" font-size="21" font-weight="400" fill="#5B6472" text-anchor="start">DRAW</text><line x1="600" y1="184.7" x2="600" y2="249.04999999999998" stroke="#DDE3EC"/><text x="726.4" y="218.7" font-family="Arial, Helvetica, sans-serif" font-size="21" font-weight="400" fill="#5B6472" text-anchor="start">-</text><line x1="710.4" y1="184.7" x2="710.4" y2="249.04999999999998" stroke="#DDE3EC"/><text x="836.8" y="218.7" font-family="Arial, Helvetica, sans-serif" font-size="21" font-weight="400" fill="#5B6472" text-anchor="start">-</text><line x1="820.8" y1="184.7" x2="820.8" y2="249.04999999999998" stroke="#DDE3EC"/><text x="947.1999999999999" y="218.7" font-family="Arial, Helvetica, sans-serif" font-size="21" font-weight="400" fill="#5B6472" text-anchor="start">DRAW</text><line x1="931.1999999999999" y1="184.7" x2="931.1999999999999" y2="249.04999999999998" stroke="#DDE3EC"/><text x="1057.6" y="218.7" font-family="Arial, Helvetica, sans-serif" font-size="21" font-weight="400" fill="#5B6472" text-anchor="start">DRAW</text><line x1="1041.6" y1="184.7" x2="1041.6" y2="249.04999999999998" stroke="#DDE3EC"/><line x1="48" y1="249.04999999999998" x2="1152" y2="249.04999999999998" stroke="#DDE3EC"/><rect x="48" y="249.04999999999998" width="1104" height="64.35" fill="#F0F3F9"/><text x="64" y="283.04999999999995" font-family="Arial, Helvetica, sans-serif" font-size="21" font-weight="700" fill="#101828" text-anchor="start">Cash Sweep</text><text x="395.2" y="283.04999999999995" font-family="Arial, Helvetica, sans-serif" font-size="21" font-weight="400" fill="#5B6472" text-anchor="start">-</text><line x1="379.2" y1="249.04999999999998" x2="379.2" y2="313.4" stroke="#DDE3EC"/><text x="505.6" y="283.04999999999995" font-family="Arial, Helvetica, sans-serif" font-size="21" font-weight="400" fill="#5B6472" text-anchor="start">-</text><line x1="489.6" y1="249.04999999999998" x2="489.6" y2="313.4" stroke="#DDE3EC"/><text x="616" y="283.04999999999995" font-family="Arial, Helvetica, sans-serif" font-size="21" font-weight="400" fill="#5B6472" text-anchor="start">DRAW</text><line x1="600" y1="249.04999999999998" x2="600" y2="313.4" stroke="#DDE3EC"/><text x="726.4" y="283.04999999999995" font-family="Arial, Helvetica, sans-serif" font-size="21" font-weight="400" fill="#5B6472" text-anchor="start">-</text><line x1="710.4" y1="249.04999999999998" x2="710.4" y2="313.4" stroke="#DDE3EC"/><text x="836.8" y="283.04999999999995" font-family="Arial, Helvetica, sans-serif" font-size="21" font-weight="400" fill="#5B6472" text-anchor="start">-</text><line x1="820.8" y1="249.04999999999998" x2="820.8" y2="313.4" stroke="#DDE3EC"/><text x="947.1999999999999" y="283.04999999999995" font-family="Arial, Helvetica, sans-serif" font-size="21" font-weight="400" fill="#5B6472" text-anchor="start">DRAW</text><line x1="931.1999999999999" y1="249.04999999999998" x2="931.1999999999999" y2="313.4" stroke="#DDE3EC"/><text x="1057.6" y="283.04999999999995" font-family="Arial, Helvetica, sans-serif" font-size="21" font-weight="400" fill="#5B6472" text-anchor="start">DRAW</text><line x1="1041.6" y1="249.04999999999998" x2="1041.6" y2="313.4" stroke="#DDE3EC"/><line x1="48" y1="313.4" x2="1152" y2="313.4" stroke="#DDE3EC"/><rect x="48" y="313.4" width="1104" height="64.35" fill="#FFFFFF"/><text x="64" y="347.4" font-family="Arial, Helvetica, sans-serif" font-size="21" font-weight="700" fill="#101828" text-anchor="start">Sabah 88 / Sandakan</text><text x="395.2" y="347.4" font-family="Arial, Helvetica, sans-serif" font-size="21" font-weight="400" fill="#5B6472" text-anchor="start">-</text><line x1="379.2" y1="313.4" x2="379.2" y2="377.75" stroke="#DDE3EC"/><text x="505.6" y="347.4" font-family="Arial, Helvetica, sans-serif" font-size="21" font-weight="400" fill="#5B6472" text-anchor="start">DRAW</text><line x1="489.6" y1="313.4" x2="489.6" y2="377.75" stroke="#DDE3EC"/><text x="616" y="347.4" font-family="Arial, Helvetica, sans-serif" font-size="21" font-weight="400" fill="#5B6472" text-anchor="start">DRAW</text><line x1="600" y1="313.4" x2="600" y2="377.75" stroke="#DDE3EC"/><text x="726.4" y="347.4" font-family="Arial, Helvetica, sans-serif" font-size="21" font-weight="400" fill="#5B6472" text-anchor="start">DRAW</text><line x1="710.4" y1="313.4" x2="710.4" y2="377.75" stroke="#DDE3EC"/><text x="836.8" y="347.4" font-family="Arial, Helvetica, sans-serif" font-size="21" font-weight="400" fill="#5B6472" text-anchor="start">-</text><line x1="820.8" y1="313.4" x2="820.8" y2="377.75" stroke="#DDE3EC"/><text x="947.1999999999999" y="347.4" font-family="Arial, Helvetica, sans-serif" font-size="21" font-weight="400" fill="#5B6472" text-anchor="start">DRAW</text><line x1="931.1999999999999" y1="313.4" x2="931.1999999999999" y2="377.75" stroke="#DDE3EC"/><text x="1057.6" y="347.4" font-family="Arial, Helvetica, sans-serif" font-size="21" font-weight="400" fill="#5B6472" text-anchor="start">DRAW</text><line x1="1041.6" y1="313.4" x2="1041.6" y2="377.75" stroke="#DDE3EC"/><line x1="48" y1="377.75" x2="1152" y2="377.75" stroke="#DDE3EC"/><rect x="48" y="0" width="1104" height="377.75" fill="none" stroke="#DDE3EC" stroke-width="2"/></g><rect x="48" y="557.75" width="1104" height="44" rx="10" fill="#EEF2F9" stroke="#DDE3EC"/><circle cx="74" cy="579.75" r="9" fill="#16365F"/><text x="74" y="584.75" font-family="Arial, Helvetica, sans-serif" font-size="14" font-weight="700" fill="#fff" text-anchor="middle">i</text><text x="94" y="584.75" font-family="Arial, Helvetica, sans-serif" font-size="18" fill="#5B6472">East Malaysian schedules vary. Sabah pools commonly draw Tue, Thu, Sat and Sun. Confirm on the operator site.</text>
  <line x1="48" y1="675-44" x2="1152" y2="675-44" stroke="#DDE3EC" stroke-width="1"/>
  <text x="48" y="675-18" font-family="Arial, Helvetica, sans-serif" font-size="17" fill="#5B6472" font-weight="700">4DMALAYA.COM</text>
  <text x="1152" y="675-18" font-family="Arial, Helvetica, sans-serif" font-size="17" fill="#5B6472" text-anchor="end">4D results, schedules and guides</text></svg>