<svg xmlns="http://www.w3.org/2000/svg" width="1200" height="630" viewBox="0 0 1200 630"><defs><linearGradient id="hg" x1="0" y1="0" x2="1" y2="1"><stop offset="0" stop-color="#0B1E3A"/><stop offset="1" stop-color="#1B477E"/></linearGradient>
  <radialGradient id="glow" cx="0.5" cy="0.5" r="0.5"><stop offset="0" stop-color="#F5B301" stop-opacity="0.35"/><stop offset="1" stop-color="#F5B301" stop-opacity="0"/></radialGradient></defs><rect width="1200" height="630" fill="url(#hg)"/><circle cx="1050" cy="120" r="320" fill="url(#glow)"/><circle cx="1120" cy="560" r="240" fill="url(#glow)"/><g opacity="0.10" stroke="#F5B301" stroke-width="2" fill="none"><circle cx="960" cy="330" r="44"/><circle cx="1050" cy="364" r="44"/><circle cx="1140" cy="398" r="44"/><circle cx="960" cy="420" r="44"/><circle cx="1050" cy="454" r="44"/></g><rect x="0" y="0" width="1200" height="8" fill="#F5B301"/><rect x="48" y="56" width="106.24000000000001" height="34" rx="17" fill="#F5B301"/><text x="101.12" y="79" font-family="Arial, Helvetica, sans-serif" font-size="16" font-weight="700" fill="#0B1E3A" text-anchor="middle" letter-spacing="2">ARCHIVE</text><text x="48" y="190" font-family="Arial, Helvetica, sans-serif" font-size="58" font-weight="700" fill="#FFFFFF" text-anchor="start">4D Results History: Past Winning</text><text x="48" y="262" font-family="Arial, Helvetica, sans-serif" font-size="58" font-weight="700" fill="#FFFFFF" text-anchor="start">Numbers</text><text x="48" y="340" font-family="Arial, Helvetica, sans-serif" font-size="26" font-weight="400" fill="#BFD0E6" text-anchor="start">Look up any draw by date, operator and prize tier, free and fast.</text><circle cx="78" cy="500" r="46" fill="#FFFFFF" fill-opacity="0.08" stroke="#F5B301" stroke-width="3"/><text x="78" y="517" font-family="Arial, Helvetica, sans-serif" font-size="42" font-weight="700" fill="#F5B301" text-anchor="middle">1</text><circle cx="186" cy="500" r="46" fill="#FFFFFF" fill-opacity="0.08" stroke="#F5B301" stroke-width="3"/><text x="186" y="517" font-family="Arial, Helvetica, sans-serif" font-size="42" font-weight="700" fill="#F5B301" text-anchor="middle">9</text><circle cx="294" cy="500" r="46" fill="#FFFFFF" fill-opacity="0.08" stroke="#F5B301" stroke-width="3"/><text x="294" y="517" font-family="Arial, Helvetica, sans-serif" font-size="42" font-weight="700" fill="#F5B301" text-anchor="middle">5</text><circle cx="402" cy="500" r="46" fill="#FFFFFF" fill-opacity="0.08" stroke="#F5B301" stroke-width="3"/><text x="402" y="517" font-family="Arial, Helvetica, sans-serif" font-size="42" font-weight="700" fill="#F5B301" text-anchor="middle">3</text><rect x="48" y="576" width="152.32" height="36" rx="18" fill="#FFFFFF" fill-opacity="0.12"/><text x="68" y="600" font-family="Arial, Helvetica, sans-serif" font-size="18" font-weight="700" fill="#FFFFFF">4DMALAYA.COM</text><text x="1152" y="600" font-family="Arial, Helvetica, sans-serif" font-size="18" fill="#8FA8C7" text-anchor="end">Updated every draw</text></svg>